<svg width="76" height="76" viewBox="0 0 76 76" fill="none" xmlns="http://www.w3.org/2000/svg">
<path d="M57.9646 56.9268L33.6592 71.586L8.73999 57.7306L8.38922 31.4814L33.3085 45.3368L57.6138 30.6921L57.9646 56.9268Z" fill="#FFD06C"/>
<path d="M57.6094 30.6877L57.9646 56.9326L33.668 71.586L33.3128 45.3411L57.6094 30.6877Z" fill="#FFD06C"/>
<path d="M33.3128 45.3412L33.668 71.5861L8.74584 57.7321L8.39069 31.4873L33.3128 45.3412Z" fill="#FEBC1F"/>
<path d="M20.4571 39.9701L18.3277 40.0052L18.3218 39.5842L16.7185 39.6105L17.0254 62.3345L22.9754 65.6435L22.6772 43.4325L20.5141 43.4675L20.4571 39.9701Z" fill="#DF3260"/>
<path d="M45.0739 39.6515L47.2033 39.6164L47.196 39.1955L48.7993 39.1692L49.2378 62.1957L43.3975 65.718L42.9678 43.1826L45.1308 43.1475L45.0739 39.6515Z" fill="#E93565"/>
<path d="M58.7831 35.3985L33.0454 51.1246L6.63536 36.2462L6.54767 30.6193L32.3 14.9077L58.71 29.7716L58.7831 35.3985Z" fill="#FFD06C"/>
<path d="M58.7158 29.7686L32.9694 45.4845L6.55499 30.6163L32.3015 14.9019L58.7158 29.7686Z" fill="#FFD06C"/>
<path d="M32.3512 17.7502L11.4146 30.5314L32.9197 42.6373L53.8562 29.8562L32.3512 17.7502Z" fill="#FEBC1F"/>
<path d="M42.5439 20.666L16.6981 36.3264L22.6348 39.6675L48.6239 24.0875L42.5439 20.666Z" fill="#F45170"/>
<path d="M58.7158 29.7686L58.7918 35.4028L33.0454 51.1172L32.9694 45.4845L58.7158 29.7686Z" fill="#FEBC1F"/>
<path d="M32.9694 45.483L33.0454 51.1172L6.63099 36.249L6.55499 30.6162L32.9694 45.483Z" fill="#F9A83D"/>
<path d="M22.6348 39.666L22.7006 45.2944L16.7521 41.946L16.6981 36.3264L22.6348 39.666Z" fill="#E93565"/>
<path d="M42.8888 39.4175L43.0057 45.0445L48.8431 41.5046L48.7116 35.8865L42.8888 39.4175Z" fill="#DF3260"/>
<path d="M16.3312 24.6502L42.8873 39.4191L48.713 35.8865L22.2767 21.0198L16.3312 24.6502Z" fill="#E93565"/>
<path d="M44.0946 33.9075C43.89 32.0806 42.3846 29.7421 40.4408 29.289C40.4992 29.2598 40.5431 29.2306 40.5869 29.1867C41.5077 28.3244 41.2592 26.2052 40.0315 24.4514C39.5054 23.7206 38.9061 23.1652 38.3069 22.8437C37.6054 22.449 36.9184 22.3614 36.3923 22.639C36.1731 21.0021 35.0038 19.1898 33.6007 18.4152C32.8261 17.9767 32.1246 17.9475 31.6277 18.2544L30.4438 18.956C29.9907 18.386 29.4646 17.9183 28.9384 17.626C28.1054 17.1583 27.4915 17.2021 26.9654 17.4652L25.1092 18.5906C25.0946 18.6052 25.0654 18.6198 25.0507 18.6198L25.0215 18.649C24.4077 19.0144 24.1592 19.8914 24.2908 20.9144C24.2323 20.9437 24.1738 20.9583 24.13 20.9875L22.1715 22.1567C22.2007 22.1567 22.23 22.1421 22.2446 22.1421C21.8061 22.376 21.4992 22.8437 21.4115 23.5598C21.2507 25.1967 22.3469 27.389 23.8815 28.456C23.9546 28.5144 24.0423 28.5583 24.13 28.6167C25.9131 29.6106 31.2331 30.7214 31.7592 30.8237L31.8469 30.8821C32.3731 31.3498 37.7515 36.1875 39.5346 37.1814C39.6369 37.2252 39.71 37.269 39.7831 37.2983C40.47 37.5906 41.0546 37.5175 41.4784 37.2106C41.4492 37.2398 41.4346 37.269 41.4054 37.2983L43.3492 36.1144C43.9192 35.7783 44.2261 34.989 44.0946 33.9075ZM26.0884 26.5998C26.0335 26.5558 25.9748 26.5167 25.9131 26.4829C24.8754 25.7521 24.1154 24.3198 24.1154 23.1652C24.13 23.1798 24.1446 23.1798 24.1592 23.1944C24.2469 23.2383 24.3346 23.2967 24.4223 23.3552C25.0069 23.7644 26.5269 25.4744 28.1346 27.3744C27.2577 27.0967 26.5269 26.8337 26.0884 26.5998ZM27.3892 21.3237C27.0969 20.739 26.9654 20.1544 26.9654 19.6575C26.98 19.6575 26.9946 19.6575 27.0092 19.6721C27.6084 20.0083 28.2223 20.6514 28.6315 21.4552C28.8654 21.9229 29.1723 22.9606 29.5084 24.2467C28.4707 22.946 27.6523 21.8498 27.3892 21.3237ZM33.1184 26.2198C32.3292 23.6767 31.6131 21.1921 31.6131 20.4614V20.4321C31.6277 20.4321 31.6423 20.4467 31.6715 20.4467C32.7823 21.0752 33.7177 22.6244 33.7323 23.896C33.7323 24.349 33.4838 25.2114 33.1184 26.2198ZM36.1731 24.7875C36.2461 24.8167 36.3046 24.846 36.3777 24.8752C36.8161 25.1237 37.2546 25.5183 37.62 26.0444C38.2923 26.9944 38.5554 28.076 38.38 28.836C37.3861 29.026 36.0708 29.1721 34.8869 29.2598C35.2669 27.6667 35.7492 25.9129 36.1731 24.7875ZM36.67 31.3498C37.7515 31.306 38.6723 31.3352 39.0961 31.5106C39.1838 31.5544 39.2715 31.5837 39.3592 31.6421C40.3677 32.1975 41.2592 33.5421 41.4054 34.7844C41.42 34.9014 41.42 35.0037 41.42 35.106C40.5723 34.6237 38.5846 33.0014 36.67 31.3498Z" fill="#E93565"/>
<path d="M31.8878 28.3553L29.941 29.5289C27.7546 29.0247 25.1326 28.3144 24.149 27.7677C24.0872 27.7338 24.0272 27.6967 23.9692 27.6567C22.854 26.8762 22.0487 25.2758 22.1744 24.0905C22.227 23.5994 22.4287 23.2545 22.7283 23.0747L24.6722 21.9011C24.3755 22.0809 24.1723 22.4258 24.1197 22.9169C23.9955 24.1022 24.8008 25.7026 25.9145 26.483C25.9657 26.5181 26.0256 26.5561 26.0943 26.5956C27.0779 27.1407 29.6999 27.8525 31.8878 28.3553Z" fill="#CC104A"/>
<path d="M32.5923 27.9824L30.6455 29.156C28.4912 26.6188 25.9496 23.497 25.4512 22.5046C24.8081 21.2257 24.8783 19.9703 25.5725 19.5523L27.5178 18.3787C26.8236 18.7967 26.7549 20.0521 27.398 21.331C27.8949 22.3248 30.4394 25.4467 32.5923 27.9824Z" fill="#CC104A"/>
<path d="M25.0229 18.6418L26.9683 17.4682C27.0553 17.416 27.148 17.3739 27.2445 17.3425C27.7473 17.1774 28.345 17.2958 28.9413 17.6275C29.6429 18.0163 30.34 18.7003 30.8779 19.5699L28.9326 20.7435C28.3933 19.8739 27.6961 19.1899 26.996 18.7997C26.3997 18.4694 25.8005 18.351 25.2992 18.5162C25.2026 18.5475 25.11 18.5896 25.0229 18.6418Z" fill="#E93565"/>
<path d="M42.8011 35.2084L40.8543 36.382C40.5518 36.5647 40.144 36.5808 39.6793 36.3893C39.6174 36.3633 39.5569 36.334 39.498 36.3017C38.5159 35.7536 35.872 33.5393 33.6665 31.5999L35.6133 30.4248C37.8173 32.3643 40.4612 34.58 41.4448 35.1266C41.512 35.1646 41.572 35.1938 41.6246 35.2157C42.0893 35.4072 42.4971 35.3911 42.8011 35.2084Z" fill="#F45170"/>
<path d="M30.2333 20.3343L32.1787 19.1621C31.8206 19.377 31.6028 19.8286 31.6116 20.4629C31.6233 21.3749 32.7326 25.0813 33.7323 28.174L31.7884 29.3476C30.7858 26.255 29.678 22.5485 29.6663 21.6365C29.6575 21.0022 29.8753 20.5491 30.2333 20.3343Z" fill="#CC104A"/>
<path d="M36.8863 23.5818C36.8282 23.6177 36.7739 23.6593 36.7241 23.706C36.2432 24.1562 35.4584 26.9024 34.8869 29.2584L32.9431 30.432C33.5131 28.0746 34.2979 25.3298 34.7773 24.8782C34.8273 24.8319 34.8822 24.7913 34.941 24.7569L36.8863 23.5818Z" fill="#CC104A"/>
<path d="M39.8678 28.4064L37.9225 29.58C37.2473 29.9878 34.9293 30.2816 32.9416 30.4321L34.8869 29.2585C36.8746 29.1079 39.1941 28.8142 39.8678 28.4064ZM29.6838 19.4238L31.6306 18.2516C32.1275 17.9506 32.8261 17.9798 33.6022 18.4124C34.9995 19.1885 36.1731 20.9993 36.3996 22.6392L34.4528 23.8128C34.2263 22.1729 33.0541 20.3621 31.6569 19.5846C30.8808 19.1534 30.1837 19.1242 29.6838 19.4238ZM43.3492 36.1189L41.4039 37.2911C41.9798 36.9447 42.2823 36.1613 42.1551 35.0856C41.9535 33.3815 40.7375 31.5429 39.3519 30.7726C39.2353 30.7072 39.1148 30.6491 38.9909 30.5987C38.8334 30.5374 38.6697 30.4933 38.5028 30.4672L40.4495 29.2921C40.7487 29.3407 41.0362 29.4448 41.2972 29.599C42.6828 30.3678 43.8988 32.2079 44.1005 33.9135C44.2276 34.9862 43.9251 35.7711 43.3492 36.1189ZM24.9996 22.4126C24.9616 22.4872 24.8637 22.4594 24.8359 22.3936C24.6839 22.0385 24.7628 21.5386 24.8125 21.1645C24.8271 21.0563 24.8345 20.9189 24.8622 20.7918C24.6034 20.79 24.3489 20.8582 24.1256 20.9891L22.1803 22.1627C22.6831 21.8602 23.3861 21.8967 24.149 22.3206C24.2674 22.3878 24.3872 22.4623 24.5085 22.5471C24.643 22.6406 24.8096 22.7824 25.0025 22.9622L25.0639 22.9242L25.0537 22.2782C25.0398 22.3245 25.0217 22.3695 24.9996 22.4126Z" fill="#F45170"/>
<path d="M42.1551 35.087C42.3743 36.9374 41.3147 37.9297 39.7874 37.3013C39.7023 37.2657 39.6194 37.2252 39.539 37.18C37.7588 36.1905 32.3789 31.3514 31.8513 30.8749L31.765 30.8281C31.2403 30.7185 25.9116 29.6034 24.13 28.6139C24.0445 28.567 23.9616 28.5158 23.8815 28.4604C22.3498 27.3877 21.2463 25.1924 21.4203 23.5599C21.5781 22.0545 22.7649 21.5517 24.149 22.3205C24.2673 22.3877 24.3872 22.4623 24.5085 22.547C24.643 22.6406 24.8096 22.7824 25.0025 22.9621C24.9511 22.8759 24.9024 22.7882 24.8563 22.699C23.8946 20.7844 24.092 18.9122 25.2992 18.5161C25.8005 18.351 26.3997 18.4694 26.9946 18.8011C27.6961 19.1899 28.3933 19.8739 28.9326 20.7435C29.1182 19.3331 30.2596 18.8084 31.6569 19.5845C33.0541 20.362 34.2263 22.1714 34.4528 23.8127C34.976 23.5336 35.6659 23.6198 36.366 24.0086C36.9623 24.3404 37.5659 24.8914 38.0818 25.6221C39.3168 27.376 39.5682 29.4967 38.643 30.3634C38.5994 30.4016 38.5525 30.4358 38.5027 30.4657C38.8022 30.5133 39.0899 30.6175 39.3504 30.7726C40.736 31.5414 41.952 33.3814 42.1551 35.087ZM25.4512 22.5032C25.951 23.497 28.4912 26.6189 30.6455 29.1561C30.0024 26.1234 29.1313 22.4564 28.63 21.4611C28.2223 20.65 27.6157 20.0069 27.0077 19.6678C26.5736 19.4267 26.1381 19.3404 25.7727 19.4603C24.8958 19.7467 24.7526 21.1104 25.4512 22.5032ZM34.7787 24.8797C34.2979 25.3298 33.513 28.076 32.9416 30.432C35.0608 30.2713 37.5542 29.9483 38.0336 29.4981C38.7059 28.8697 38.5232 27.3219 37.6258 26.0489C37.3015 25.5707 36.8752 25.1704 36.3776 24.8767C35.7696 24.5377 35.1704 24.5114 34.7787 24.8797ZM39.6778 36.3893C40.7886 36.8453 41.5632 36.1233 41.4024 34.7772C41.2563 33.5378 40.3676 32.1961 39.3606 31.6364C39.2765 31.5894 39.1896 31.5474 39.1005 31.5107C38.3054 31.1847 35.7506 31.3528 33.6665 31.5984C35.8734 33.5378 38.5159 35.7535 39.498 36.3001C39.5667 36.3381 39.6266 36.3673 39.6778 36.3878M24.149 27.7691C25.1311 28.3157 27.7546 29.026 29.941 29.5303C27.8189 26.9448 25.2203 23.9121 24.4237 23.3538C24.336 23.2924 24.2483 23.2369 24.1636 23.1901C23.1551 22.6304 22.2913 22.9972 22.1759 24.0904C22.0502 25.2772 22.854 26.8776 23.9692 27.6566C24.0203 27.6946 24.0803 27.7311 24.149 27.7691ZM31.787 29.349C32.7194 27.3321 33.7454 24.811 33.7323 23.8975C33.7162 22.6216 32.7896 21.0767 31.6686 20.4527C30.5461 19.8286 29.6487 20.3606 29.6663 21.6365C29.678 22.55 30.7858 26.2564 31.787 29.349Z" fill="#DF3260"/>
<path d="M34.4528 23.8128L36.3996 22.6391C36.9214 22.36 37.6127 22.4462 38.3113 22.8364C38.9076 23.1668 39.5127 23.7178 40.0271 24.4485C41.2621 26.2024 41.5135 28.3231 40.5884 29.1898C40.5448 29.228 40.4978 29.2622 40.448 29.2921L38.5027 30.4671C38.5525 30.4369 38.5995 30.4021 38.6431 30.3634C39.5682 29.4967 39.3154 27.3745 38.0818 25.6221C37.5659 24.8914 36.9623 24.3404 36.366 24.0086C35.6659 23.6198 34.9775 23.5336 34.4528 23.8128Z" fill="#E93565"/>
<path d="M69.4523 66.2514C69.4581 67.9994 68.3211 69.7401 66.0264 71.0759C61.4401 73.7432 53.9731 73.7432 49.3547 71.0832C47.0484 69.7459 45.885 68.0052 45.8718 66.2514C45.8718 66.1344 45.8791 66.0131 45.885 65.8977C45.9434 64.7606 46.1875 63.4496 46.6041 62.0684C47.0221 60.8217 47.5672 59.4771 48.1971 58.0667C49.5418 55.3746 51.3789 52.8052 53.5054 51.1084C53.5244 51.6988 53.9351 52.2966 54.7258 52.7453C56.3511 53.6909 58.9716 53.6909 60.591 52.7453C61.3758 52.2966 61.7792 51.6988 61.7924 51.0938C66.1229 54.5254 69.2462 61.573 69.4377 65.9371C69.445 66.0453 69.4523 66.1491 69.4523 66.2514Z" fill="#5094FF"/>
<path d="M51.8481 57.2061C51.8102 57.1863 51.7766 57.1591 51.7492 57.1262C51.7218 57.0933 51.7012 57.0553 51.6886 57.0144C51.676 56.9735 51.6715 56.9306 51.6756 56.8879C51.6796 56.8453 51.6921 56.804 51.7122 56.7662C52.7133 54.91 53.8577 53.6049 55.2009 52.7806L55.537 53.3272C54.2933 54.0916 53.2249 55.3178 52.2778 57.0687C52.2385 57.1434 52.1715 57.1997 52.0911 57.2254C52.0107 57.2511 51.9234 57.2442 51.8481 57.2061ZM53.8913 43.2586C53.8913 43.2586 51.3483 42.4709 50.6818 43.643C50.6818 43.643 50.1016 44.2656 50.6292 45.166C50.9113 45.6512 51.4184 45.961 51.9694 46.0721C52.573 46.192 53.469 46.4258 53.9644 46.8204C54.7536 47.4518 57.801 48.662 60.7416 47.4737C60.7416 47.4737 61.7252 46.8409 62.6343 46.8672C63.5448 46.8935 64.4904 46.4083 64.6833 45.736C64.8777 45.0651 64.6307 43.0073 62.9704 43.2645C62.9704 43.2645 61.6404 43.8623 60.1613 43.2133C58.5303 42.4972 56.8261 43.1549 56.8261 43.1549C56.8261 43.1549 55.3266 44.004 53.8913 43.2586Z" fill="#57B3FE"/>
<path d="M58.0829 47.3334C56.2531 47.3334 54.7623 46.6363 54.3648 46.3177C53.8942 45.9435 53.1312 45.6483 52.095 45.4407C51.6902 45.3603 51.3584 45.1426 51.183 44.8415C50.9053 44.368 51.1494 44.0844 51.1509 44.0815L51.2035 44.0274L51.24 43.9617C51.3993 43.684 51.9211 43.6416 52.2178 43.6416C52.836 43.6416 53.4776 43.8097 53.6545 43.8579C54.1222 44.0903 54.6352 44.2087 55.1789 44.2087C56.1142 44.2087 56.8742 43.8535 57.0847 43.7453C57.2162 43.7015 57.7819 43.5217 58.4878 43.5217C59.0052 43.5217 59.4816 43.6167 59.9025 43.8009C60.9294 44.2422 62.0862 44.2736 63.1355 43.8886C63.1719 43.8851 63.2085 43.8837 63.2451 43.8842C63.4804 43.8842 63.6485 43.9675 63.7902 44.156C64.0957 44.5623 64.1425 45.296 64.0679 45.5591C63.9758 45.8733 63.3737 46.2256 62.7058 46.2256L62.5786 46.2241C61.6286 46.2241 60.7035 46.7444 60.4506 46.8979C59.6958 47.1907 58.8925 47.3385 58.0829 47.3334ZM60.6026 50.9127C58.9832 51.8525 56.3612 51.8525 54.7316 50.9127C54.1967 50.6029 53.5025 49.837 53.5025 49.837L53.4966 51.0355C53.4937 51.6552 53.9044 52.2749 54.7243 52.7484C56.3525 53.6882 58.9745 53.6882 60.5938 52.7484C61.3977 52.2807 61.7996 51.6713 61.8011 51.0603L61.8069 49.8765C61.8069 49.8765 61.1346 50.6029 60.6026 50.9127Z" fill="#497BFE"/>
<path d="M56.3013 56.3772C56.2897 56.4221 56.2685 56.464 56.2392 56.4999C56.2099 56.5359 56.1732 56.5651 56.1315 56.5855C56.0898 56.6059 56.0443 56.617 55.9979 56.6182C55.9515 56.6193 55.9055 56.6104 55.8629 56.5921C55.4732 56.4266 55.1558 56.1269 54.9684 55.7473C54.4028 54.6102 55.0488 52.9952 55.0765 52.9265L55.6816 53.1618C55.6758 53.1764 55.1072 54.5854 55.5442 55.4623C55.667 55.7078 55.8585 55.8861 56.123 56.0031C56.1925 56.0339 56.2486 56.0886 56.2813 56.1572C56.314 56.2258 56.3211 56.3038 56.3013 56.3772Z" fill="#57B3FE"/>
<path d="M65.3161 69.0327C64.7315 69.3674 64.1381 69.515 63.5798 69.4916C62.7759 69.4536 62.0305 69.0941 61.4488 68.451C61.2767 68.2508 61.1236 68.035 60.9914 67.8065C60.7568 67.4129 60.5815 66.9869 60.4711 66.5422C60.4579 66.5174 60.4579 66.4808 60.4462 66.4545C59.8134 63.8413 60.9665 60.7691 63.0098 59.5795C63.5381 59.265 64.1429 59.1022 64.7578 59.1088C65.1422 59.1205 65.5134 59.2199 65.8598 59.3807C66.0702 59.4801 66.2807 59.6043 66.4678 59.7651C67.0992 60.2605 67.6078 61.0541 67.8562 62.0816C67.8679 62.1065 67.8796 62.1313 67.8796 62.1561C68.511 64.7708 67.3725 67.843 65.3161 69.0327Z" fill="#F9A83D"/>
<path d="M63.6836 68.546C62.6225 68.546 61.7134 67.6355 61.37 66.2251C60.8365 64.0386 61.8055 61.3728 63.4877 60.4008C63.878 60.1758 64.2711 60.0603 64.654 60.0603C65.7283 60.0603 66.6125 60.9518 66.9633 62.3841C67.4967 64.5706 66.5248 67.2379 64.844 68.2084C64.4567 68.432 64.0665 68.546 63.6836 68.546Z" fill="#FFD475"/>
<path d="M58.1546 46.9737L57.76 47.8244C57.5656 48.2482 57.0936 48.5405 56.3891 48.6092C54.9743 48.7451 53.1562 47.9106 52.3304 46.7457C51.9139 46.1567 51.8291 45.5984 52.0264 45.1702L52.421 44.321C52.2223 44.7478 52.3085 45.3076 52.725 45.8951C53.5493 47.06 55.3675 47.8945 56.7837 47.7586C57.4853 47.6913 57.9588 47.3961 58.1546 46.9737Z" fill="#FFD06C"/>
<path d="M56.4169 46.2401L56.6215 47.155C56.7238 47.6081 57.1213 47.9968 57.7951 48.2117C59.1499 48.6443 61.1026 48.2146 62.1563 47.2514C62.6883 46.7647 62.89 46.2371 62.7877 45.7767L62.5831 44.8633C62.6854 45.3237 62.4837 45.8513 61.9532 46.3365C60.8994 47.3011 58.9453 47.7308 57.5905 47.2982C56.9182 47.0819 56.5192 46.6946 56.4169 46.2401Z" fill="#FFD475"/>
<path d="M61.9502 46.3336C61.37 46.87 60.5135 47.2485 59.6263 47.3932C59.2639 47.4516 58.916 47.4809 58.5682 47.4516C58.4074 47.4516 58.2335 47.437 58.0742 47.4078C57.9134 47.3786 57.7541 47.3347 57.5948 47.2909C57.073 47.1316 56.7091 46.8553 56.5352 46.5367C56.2443 46.0281 56.4036 45.3602 57.0438 44.7653C57.6386 44.2275 58.4951 43.865 59.3662 43.7057C60.078 43.5888 60.8029 43.618 61.4123 43.808C61.4708 43.8226 61.5293 43.8519 61.5877 43.8796C61.7193 43.9235 61.8347 43.982 61.9502 44.055C62.184 44.1851 62.3565 44.359 62.4588 44.5622C62.7628 45.084 62.605 45.7387 61.9502 46.3336Z" fill="#F9A83D"/>
<path d="M57.6972 44.9759C56.9226 45.6848 57.1023 46.5164 58.0962 46.835C59.0929 47.1522 60.5282 46.8365 61.3028 46.1276C62.0774 45.4188 61.8976 44.5872 60.9023 44.2685C59.9085 43.9514 58.4733 44.2671 57.6972 44.9759Z" fill="#FFD06C"/>
<path d="M60.6903 45.0649C60.6027 44.9419 60.4914 44.8375 60.3629 44.758L60.4989 44.6089C60.5083 44.5996 60.5158 44.5885 60.5208 44.5762C60.5259 44.5638 60.5283 44.5506 60.5281 44.5373C60.5273 44.5255 60.5235 44.5141 60.5171 44.5041C60.5108 44.4942 60.5019 44.486 60.4915 44.4803C60.4675 44.467 60.4393 44.4634 60.4126 44.4701C60.3833 44.4773 60.3568 44.493 60.3366 44.5154L60.1978 44.6689C60.0876 44.6186 59.9681 44.5917 59.847 44.5899C59.7334 44.5887 59.6207 44.6111 59.5162 44.6559C59.4118 44.7007 59.3179 44.7669 59.2405 44.8501C59.1653 44.9238 59.117 45.0205 59.1031 45.1249C59.0961 45.2105 59.1155 45.2961 59.1586 45.3704C59.2096 45.4562 59.2694 45.5366 59.3369 45.6101L58.8692 46.1216C58.7476 46.0423 58.6456 45.9364 58.5711 45.8118C58.5618 45.7961 58.5487 45.7831 58.5331 45.7738C58.5172 45.765 58.4997 45.7594 58.4816 45.7574C58.4636 45.7554 58.4453 45.757 58.4279 45.7621C58.3895 45.771 58.3549 45.7914 58.3285 45.8206C58.3092 45.8407 58.2964 45.8661 58.2919 45.8936C58.2875 45.9185 58.2928 45.9441 58.3065 45.9653C58.3942 46.1085 58.5155 46.2356 58.669 46.3409L58.5272 46.4958C58.5053 46.5206 58.4951 46.544 58.498 46.5689C58.4995 46.5893 58.5126 46.6083 58.5345 46.6215C58.5594 46.6361 58.5857 46.6405 58.6149 46.6332C58.6439 46.6271 58.6701 46.6117 58.6895 46.5893L58.8312 46.4344C58.9373 46.4866 59.0524 46.5178 59.1703 46.5265C59.2842 46.5339 59.3983 46.5163 59.5046 46.4749C59.6109 46.4335 59.7068 46.3693 59.7856 46.2868C59.8668 46.2087 59.9197 46.1059 59.9362 45.9945C59.943 45.9072 59.9215 45.8201 59.8748 45.746C59.8184 45.6592 59.7533 45.5784 59.6804 45.5049L60.1656 44.9743C60.2767 45.0459 60.3673 45.1293 60.4345 45.2228C60.443 45.2365 60.4545 45.248 60.4682 45.2564C60.484 45.2653 60.5016 45.2708 60.5197 45.2726C60.5378 45.2743 60.5561 45.2723 60.5734 45.2666C60.6098 45.2563 60.6427 45.236 60.6684 45.2082C60.7152 45.1585 60.721 45.1088 60.6903 45.0649ZM59.4246 45.1585C59.4071 45.0956 59.4275 45.0328 59.4875 44.9685C59.547 44.9024 59.6286 44.8603 59.7169 44.8501C59.8122 44.8403 59.9084 44.8533 59.9975 44.8881L59.5547 45.3704C59.496 45.3104 59.4515 45.238 59.4246 45.1585ZM59.4626 45.7431C59.5386 45.8293 59.5883 45.9039 59.6117 45.9653C59.6351 46.0266 59.6205 46.0836 59.5679 46.1406C59.429 46.2941 59.2536 46.3175 59.0315 46.2152L59.4626 45.7431Z" fill="#F9A83D"/>
<path opacity="0.3" d="M61.5877 43.8796L58.0742 47.4078C57.9134 47.3786 57.7541 47.3347 57.5948 47.2909C57.073 47.1316 56.7091 46.8553 56.5352 46.5367L59.3662 43.7057C60.0779 43.5888 60.8029 43.618 61.4123 43.808C61.4708 43.8226 61.5292 43.8519 61.5877 43.8796ZM62.4588 44.5622L59.6278 47.3932C59.2639 47.4516 58.916 47.4809 58.5682 47.4516L61.9502 44.0536C62.184 44.1851 62.3565 44.359 62.4588 44.5622Z" fill="#FDFDFD"/>
<path d="M57.8521 45.404C58.6779 46.5689 58.1985 47.6241 56.7837 47.7586C55.366 47.8945 53.5493 47.06 52.725 45.8951C51.8978 44.7259 52.3772 43.6721 53.7919 43.5362C55.2067 43.4017 57.0249 44.2363 57.8521 45.404Z" fill="#F9A83D"/>
<path d="M57.171 45.4684C57.779 46.3249 57.4253 47.0995 56.3876 47.1989C55.347 47.2983 54.0112 46.6859 53.4032 45.8279C52.7966 44.9715 53.1489 44.1969 54.1895 44.0975C55.2272 43.9981 56.5645 44.6105 57.171 45.4684Z" fill="#FFD06C"/>
<path d="M56.316 46.2547C56.363 46.1681 56.3804 46.0686 56.3657 45.9712C56.3474 45.8671 56.3008 45.7701 56.2313 45.6905C56.1594 45.5996 56.0657 45.5283 55.9589 45.4834C55.8521 45.4384 55.7356 45.4212 55.6203 45.4333C55.5028 45.4463 55.3864 45.4688 55.2725 45.5005L54.8004 44.9379C54.9202 44.8766 55.049 44.8347 55.1819 44.8136C55.1993 44.8122 55.2162 44.8072 55.2316 44.799C55.2457 44.7918 55.2575 44.7806 55.2655 44.7669C55.2736 44.7532 55.2775 44.7374 55.2769 44.7215C55.2765 44.6865 55.2635 44.6528 55.2403 44.6265C55.1965 44.5725 55.1409 44.5491 55.0766 44.5593C54.9133 44.5818 54.7551 44.6322 54.6089 44.7084L54.4774 44.5505C54.4579 44.5267 54.4313 44.5098 54.4014 44.5023C54.3881 44.4984 54.3741 44.4972 54.3603 44.4987C54.3465 44.5002 54.3332 44.5044 54.321 44.5111C54.3102 44.5166 54.3011 44.525 54.2947 44.5353C54.2883 44.5456 54.2847 44.5574 54.2845 44.5695C54.2845 44.5959 54.2933 44.6207 54.3137 44.6441L54.4482 44.8063C54.3593 44.8691 54.2887 44.9543 54.2436 45.0533C54.2038 45.1438 54.1936 45.2446 54.2143 45.3412C54.2348 45.4377 54.2816 45.5312 54.3546 45.6175C54.4282 45.7098 54.5258 45.7801 54.6367 45.8206C54.7355 45.8558 54.8406 45.8697 54.9451 45.8615C55.0445 45.8542 55.1585 45.8367 55.2856 45.806L55.7416 46.3497C55.5964 46.42 55.4392 46.4621 55.2783 46.4739C55.2578 46.4754 55.2378 46.4814 55.2199 46.4915C55.2054 46.499 55.1932 46.5103 55.1847 46.5242C55.1762 46.5381 55.1717 46.5541 55.1716 46.5704C55.1721 46.6061 55.1856 46.6404 55.2096 46.6669C55.2298 46.6901 55.2551 46.7084 55.2835 46.7203C55.3118 46.7322 55.3426 46.7374 55.3733 46.7355C55.5721 46.7165 55.7606 46.6654 55.936 46.5821L56.0734 46.7458C56.0923 46.7696 56.1185 46.7865 56.1479 46.794C56.1772 46.7998 56.202 46.7969 56.2239 46.7838C56.2488 46.7692 56.2619 46.7502 56.2649 46.7253C56.2651 46.7118 56.2626 46.6984 56.2576 46.6858C56.2525 46.6733 56.2451 46.6619 56.2356 46.6522L56.0997 46.4885C56.1897 46.4293 56.264 46.3491 56.316 46.2547ZM55.4829 45.7534C55.5847 45.7277 55.6893 45.7149 55.7943 45.7154C55.8315 45.7157 55.8683 45.7242 55.9019 45.7404C55.9355 45.7566 55.9651 45.78 55.9886 45.8089C56.1246 45.9712 56.0968 46.1173 55.9039 46.2547L55.4829 45.7534ZM54.5081 45.2448C54.53 45.1636 54.5777 45.0918 54.644 45.0402L55.0737 45.5517C54.9786 45.5775 54.8798 45.5874 54.7814 45.5809C54.7407 45.5765 54.7013 45.5638 54.6656 45.5438C54.63 45.5237 54.5987 45.4965 54.5739 45.464C54.5154 45.3939 54.492 45.3208 54.5081 45.2448Z" fill="#F9A83D"/>
<path opacity="0.3" d="M58.2482 46.6231C58.1897 47.161 57.7688 47.5673 57.0585 47.712L53.0802 43.7205C53.304 43.6146 53.5451 43.5502 53.7919 43.5305C54.2845 43.4867 54.8223 43.5597 55.3587 43.7351L58.2482 46.6231ZM56.5937 47.7704C56.2444 47.785 55.8819 47.7412 55.5195 47.6389L52.3669 44.4893C52.4305 44.2619 52.5621 44.0595 52.744 43.909L56.5937 47.7704Z" fill="#FDFDFD"/>
<path d="M64.0724 44.9175C64.1118 45.1806 64.1045 45.429 64.0665 45.5576C63.9759 45.8733 63.3737 46.2256 62.7058 46.2256L62.5787 46.2241C61.6287 46.2241 60.7035 46.7444 60.4507 46.8979C59.6959 47.1907 58.8926 47.3385 58.083 47.3334C56.2531 47.3334 54.7624 46.6362 54.3648 46.3176C53.8942 45.9435 53.1313 45.6482 52.095 45.4407C52.0717 45.4363 51.7925 45.3457 51.7706 45.3399L51.4797 46.0166C52.0819 46.1408 53.485 46.4375 53.9644 46.8204C54.7536 47.4518 57.8009 48.6619 60.7415 47.4737C60.7415 47.4737 61.7251 46.8409 62.6342 46.8672C63.5447 46.8935 64.4904 46.4082 64.6833 45.7359C64.7388 45.5459 64.7563 45.2449 64.7183 44.9175H64.0724Z" fill="#57B3FE"/>
<path d="M64.7359 45.4289C64.8119 46.7589 62.3522 49.3283 62.3522 49.3283C62.0944 49.5523 61.8536 49.7951 61.6316 50.0547C61.6258 50.0605 61.6199 50.0678 61.6068 50.0737C61.3685 50.3177 60.9578 50.7021 60.6042 50.9155C58.9848 51.8538 56.3642 51.8538 54.7317 50.9155C54.2494 50.632 53.6326 49.9772 53.5245 49.8559C53.1839 49.0959 52.9135 48.6019 52.9135 48.6019C52.3231 47.4327 51.0954 45.7957 50.7943 45.4026C51.0895 45.7563 51.5134 45.9814 51.9694 46.0705C52.573 46.1933 53.466 46.4242 53.9615 46.8232C54.758 47.4517 57.8024 48.6604 60.7386 47.4721C60.7386 47.4721 61.7222 46.8422 62.6342 46.8671C63.5462 46.8934 64.4904 46.4052 64.6833 45.7373C64.7038 45.654 64.7286 45.5444 64.7359 45.4289Z" fill="#5094FF"/>
<path d="M63.761 61.7674C63.8151 61.7382 63.8765 61.7441 63.913 61.8113L64.5707 62.9571C64.6043 63.0156 64.6657 63.0346 64.7242 63.001L65.8379 62.3579C65.9665 62.2848 66.0673 62.4602 65.9855 62.6151L65.2766 63.9656C65.2401 64.0357 65.2372 64.122 65.2723 64.1804L65.9299 65.3263C65.9855 65.4271 65.9358 65.5718 65.8525 65.6186C65.84 65.6265 65.826 65.6317 65.8115 65.6339C65.7969 65.6362 65.782 65.6355 65.7677 65.6317L64.6716 65.3204C64.6575 65.317 64.6429 65.3164 64.6286 65.3187C64.6143 65.3209 64.6006 65.326 64.5883 65.3336C64.5578 65.3517 64.5329 65.3781 64.5166 65.4096L63.8078 66.763C63.7922 66.7949 63.7679 66.8218 63.7376 66.8404C63.6543 66.8887 63.5579 66.8287 63.5593 66.6943L63.5929 65.1494C63.5959 65.0691 63.5579 65.0062 63.5023 64.9887L62.4091 64.6817C62.2834 64.6437 62.2893 64.407 62.4164 64.3339L63.5301 63.6908C63.5886 63.6572 63.628 63.5798 63.6295 63.5008L63.6631 61.9545C63.6623 61.9176 63.6709 61.8811 63.688 61.8484C63.7052 61.8157 63.7303 61.7879 63.761 61.7674Z" fill="#F9A83D"/>
<g opacity="0.3">
<path d="M67.8549 62.0817L63.5799 69.4917C62.776 69.4537 62.0307 69.0941 61.449 68.451L66.4679 59.7651C67.0993 60.2606 67.6079 61.0542 67.8563 62.0817H67.8549ZM65.8599 59.3822L60.9915 67.8065C60.7569 67.4129 60.5816 66.987 60.4712 66.5423L64.7579 59.1089C65.1423 59.1206 65.5135 59.2214 65.8599 59.3822Z" fill="#FDFDFD"/>
</g>
<path d="M65.0676 9.13446C65.0822 13.7821 61.8376 19.4091 57.8038 21.7475C56.7953 22.3175 55.8453 22.6391 54.9684 22.7268L52.0161 26.9652L50.2184 25.9129L50.8615 21.236L50.803 21.2068C49.5022 20.4321 48.6984 18.8245 48.6838 16.5152C48.6691 11.8821 51.9284 6.24061 55.9622 3.91676C57.9791 2.76215 59.8061 2.64522 61.1361 3.40522L62.9338 4.45753C62.8605 4.40991 62.782 4.37069 62.6999 4.34061C64.1468 5.04215 65.053 6.7083 65.0676 9.13446Z" fill="#78E75A"/>
<path d="M52.019 26.958L50.2198 25.9115L50.8585 21.2361L52.6592 22.2825L52.019 26.958Z" fill="#5EC363"/>
<path d="M62.9397 4.45762C61.6126 3.69031 59.7872 3.79262 57.7571 4.96769C53.7233 7.29154 50.4684 12.9331 50.4816 17.5662C50.4947 19.8637 51.2986 21.486 52.6008 22.2518L50.8002 21.2039C49.4994 20.4381 48.6956 18.8172 48.6809 16.5197C48.6692 11.8866 51.9241 6.24362 55.9579 3.92123C57.988 2.75931 59.812 2.64385 61.1406 3.40969L62.9397 4.45762Z" fill="#72D561"/>
<path d="M57.7526 4.96907C61.7865 2.64084 65.0574 4.51453 65.0706 9.1403C65.0852 13.7865 61.8347 19.4149 57.7994 21.7431C56.7983 22.3219 55.8439 22.6391 54.9699 22.7209L52.0176 26.9579L52.6592 22.281C51.3175 21.5356 50.4888 19.8958 50.4815 17.5631C50.4683 12.9374 53.7261 7.29292 57.7526 4.96907Z" fill="#78E75A"/>
<path d="M61.9849 15.7551C64.3261 11.7214 64.3297 7.352 61.9931 5.99587C59.6564 4.63974 55.8644 6.81039 53.5233 10.8442C51.1822 14.8779 51.1785 19.2473 53.5151 20.6034C55.8518 21.9596 59.6438 19.7889 61.9849 15.7551Z" fill="#FDFDFD"/>
<path d="M57.7672 8.34082L58.7275 11.1616L61.8186 9.37851L59.3165 12.9111L60.2884 15.7391L57.7862 15.0829L55.2943 18.6227L56.237 14.6883L53.7334 14.0452L56.8246 12.2621L57.7672 8.34082Z" fill="#4C5C75"/>
<path d="M52.019 26.958L50.2198 25.9115L50.8585 21.2361L52.6592 22.2825L52.019 26.958Z" fill="#5EC363"/>
<path d="M62.9397 4.45762C61.6126 3.69031 59.7872 3.79262 57.7571 4.96769C53.7233 7.29154 50.4684 12.9331 50.4816 17.5662C50.4947 19.8637 51.2986 21.486 52.6008 22.2518L50.8002 21.2039C49.4994 20.4381 48.6956 18.8172 48.6809 16.5197C48.6692 11.8866 51.9241 6.24362 55.9579 3.92123C57.988 2.75931 59.812 2.64385 61.1406 3.40969L62.9397 4.45762Z" fill="#72D561"/>
<path d="M57.7526 4.96907C61.7865 2.64084 65.0574 4.51453 65.0706 9.1403C65.0852 13.7865 61.8347 19.4149 57.7994 21.7431C56.7983 22.3219 55.8439 22.6391 54.9699 22.7209L52.0176 26.9579L52.6592 22.281C51.3175 21.5356 50.4888 19.8958 50.4815 17.5631C50.4683 12.9374 53.7261 7.29292 57.7526 4.96907Z" fill="#78E75A"/>
<path d="M61.9849 15.7551C64.3261 11.7214 64.3297 7.352 61.9931 5.99587C59.6564 4.63974 55.8644 6.81039 53.5233 10.8442C51.1822 14.8779 51.1785 19.2473 53.5151 20.6034C55.8518 21.9596 59.6438 19.7889 61.9849 15.7551Z" fill="#FDFDFD"/>
<path d="M57.7672 8.34082L58.7275 11.1616L61.8186 9.37851L59.3165 12.9111L60.2884 15.7391L57.7862 15.0829L55.2943 18.6227L56.237 14.6883L53.7334 14.0452L56.8246 12.2621L57.7672 8.34082Z" fill="#4C5C75"/>
</svg>
