<svg width="20" height="88" viewBox="0 0 20 88" fill="none" xmlns="http://www.w3.org/2000/svg">
<g clip-path="url(#clip0_8_11)">
<path d="M10 0.5C6.04031 0.5 2.81886 3.72145 2.81886 7.68113C2.81886 9.80258 3.98562 12.589 6.28679 15.963C7.34102 17.5025 8.488 18.9764 9.72136 20.3764C9.7566 20.4153 9.7996 20.4464 9.84759 20.4677C9.89558 20.489 9.9475 20.5 10 20.5C10.0525 20.5 10.1044 20.489 10.1524 20.4677C10.2004 20.4464 10.2434 20.4153 10.2786 20.3764C11.512 18.9764 12.6589 17.5025 13.7132 15.963C16.0143 12.589 17.1811 9.80258 17.1811 7.68113C17.1811 3.72145 13.9597 0.5 10 0.5ZM10 19.554C8.73132 18.0843 3.57074 11.8487 3.57074 7.68113C3.57074 4.13605 6.45488 1.25187 10 1.25187C13.5451 1.25187 16.4293 4.13605 16.4293 7.68113C16.4293 11.8487 11.2687 18.0843 10 19.554Z" fill="#026ED2"/>
<path d="M9.99999 4.09598C9.34862 4.09597 8.71188 4.28912 8.17029 4.65099C7.62869 5.01286 7.20657 5.52721 6.95729 6.129C6.70802 6.73078 6.6428 7.39296 6.76987 8.03182C6.89694 8.67067 7.2106 9.25749 7.67118 9.71808C8.13176 10.1787 8.71858 10.4923 9.35743 10.6194C9.99628 10.7465 10.6585 10.6813 11.2603 10.432C11.862 10.1827 12.3764 9.76062 12.7383 9.21903C13.1002 8.67744 13.2933 8.0407 13.2933 7.38934C13.2923 6.5162 12.945 5.6791 12.3276 5.06169C11.7102 4.44428 10.8731 4.09698 9.99999 4.09598ZM9.99999 9.93078C9.49733 9.93079 9.00595 9.78174 8.588 9.50248C8.17005 9.22322 7.8443 8.8263 7.65193 8.3619C7.45957 7.8975 7.40923 7.38649 7.5073 6.89349C7.60536 6.40049 7.84741 5.94763 8.20285 5.5922C8.55828 5.23676 9.01114 4.99471 9.50414 4.89665C9.99714 4.79858 10.5082 4.84892 10.9726 5.04128C11.4369 5.23364 11.8339 5.5594 12.1131 5.97735C12.3924 6.3953 12.5414 6.88668 12.5414 7.38934C12.5407 8.06314 12.2727 8.70913 11.7962 9.18558C11.3198 9.66203 10.6738 9.93003 9.99999 9.93078Z" fill="#026ED2"/>
</g>
<line x1="10.25" y1="21.75" x2="10.25" y2="66.25" stroke="#026ED2" stroke-width="0.5" stroke-linecap="round" stroke-dasharray="3 3"/>
<g clip-path="url(#clip1_8_11)">
<path d="M10 67.5C6.04031 67.5 2.81886 70.7214 2.81886 74.6811C2.81886 76.8026 3.98562 79.589 6.28679 82.963C7.34102 84.5025 8.488 85.9764 9.72136 87.3764C9.7566 87.4153 9.7996 87.4464 9.84759 87.4677C9.89558 87.489 9.9475 87.5 10 87.5C10.0525 87.5 10.1044 87.489 10.1524 87.4677C10.2004 87.4464 10.2434 87.4153 10.2786 87.3764C11.512 85.9764 12.6589 84.5025 13.7132 82.963C16.0143 79.589 17.1811 76.8026 17.1811 74.6811C17.1811 70.7214 13.9597 67.5 10 67.5ZM10 86.554C8.73132 85.0843 3.57074 78.8487 3.57074 74.6811C3.57074 71.1361 6.45488 68.2519 10 68.2519C13.5451 68.2519 16.4293 71.1361 16.4293 74.6811C16.4293 78.8487 11.2687 85.0843 10 86.554Z" fill="#026ED2"/>
<path d="M9.99999 71.096C9.34862 71.096 8.71188 71.2891 8.17029 71.651C7.62869 72.0129 7.20657 72.5272 6.95729 73.129C6.70802 73.7308 6.6428 74.393 6.76987 75.0318C6.89694 75.6707 7.2106 76.2575 7.67118 76.7181C8.13176 77.1787 8.71858 77.4923 9.35743 77.6194C9.99628 77.7465 10.6585 77.6813 11.2603 77.432C11.862 77.1827 12.3764 76.7606 12.7383 76.219C13.1002 75.6774 13.2933 75.0407 13.2933 74.3893C13.2923 73.5162 12.945 72.6791 12.3276 72.0617C11.7102 71.4443 10.8731 71.097 9.99999 71.096ZM9.99999 76.9308C9.49733 76.9308 9.00595 76.7817 8.588 76.5025C8.17005 76.2232 7.8443 75.8263 7.65193 75.3619C7.45957 74.8975 7.40923 74.3865 7.5073 73.8935C7.60536 73.4005 7.84741 72.9476 8.20285 72.5922C8.55828 72.2368 9.01114 71.9947 9.50414 71.8966C9.99714 71.7986 10.5082 71.8489 10.9726 72.0413C11.4369 72.2336 11.8339 72.5594 12.1131 72.9773C12.3924 73.3953 12.5414 73.8867 12.5414 74.3893C12.5407 75.0631 12.2727 75.7091 11.7962 76.1856C11.3198 76.662 10.6738 76.93 9.99999 76.9308Z" fill="#026ED2"/>
</g>
<defs>
<clipPath id="clip0_8_11">
<rect width="20" height="20" fill="white" transform="translate(0 0.5)"/>
</clipPath>
<clipPath id="clip1_8_11">
<rect width="20" height="20" fill="white" transform="translate(0 67.5)"/>
</clipPath>
</defs>
</svg>
