<svg width="29" height="28" viewBox="0 0 29 28" fill="none" xmlns="http://www.w3.org/2000/svg">
<g clip-path="url(#clip0_131_2174)">
<path d="M20.8061 10.2602C20.8172 10.3019 20.8201 10.3453 20.8144 10.3881C20.8088 10.4308 20.7948 10.472 20.7732 10.5094C20.7516 10.5467 20.7229 10.5794 20.6887 10.6057C20.6545 10.6319 20.6154 10.6511 20.5738 10.6623C20.5321 10.6734 20.4887 10.6763 20.4459 10.6706C20.4032 10.665 20.362 10.651 20.3246 10.6294C20.2873 10.6078 20.2546 10.5791 20.2283 10.5449C20.2021 10.5107 20.1829 10.4716 20.1717 10.43C20.1492 10.3459 20.161 10.2562 20.2046 10.1808C20.2482 10.1054 20.3199 10.0504 20.404 10.0279C20.4881 10.0054 20.5778 10.0172 20.6532 10.0608C20.7286 10.1044 20.7836 10.1761 20.8061 10.2602ZM18.4843 10.5424C18.4413 10.5523 18.4008 10.5708 18.3652 10.5967C18.3296 10.6226 18.2995 10.6554 18.2768 10.6931C18.2541 10.7309 18.2393 10.7728 18.2331 10.8165C18.227 10.8601 18.2297 10.9045 18.2411 10.9471C18.2525 10.9896 18.2724 11.0294 18.2995 11.0642C18.3266 11.0989 18.3605 11.1278 18.399 11.1491C18.4375 11.1705 18.48 11.1839 18.5238 11.1885C18.5676 11.1931 18.6119 11.1888 18.654 11.1759C18.7353 11.151 18.8038 11.0956 18.8451 11.0212C18.8863 10.9468 18.897 10.8593 18.875 10.7772C18.853 10.6951 18.8 10.6247 18.7271 10.5809C18.6542 10.5371 18.5671 10.5233 18.4843 10.5424ZM16.5645 11.0569C16.5216 11.0668 16.4811 11.0853 16.4455 11.1112C16.4098 11.1371 16.3797 11.1699 16.3571 11.2076C16.3344 11.2454 16.3195 11.2873 16.3134 11.331C16.3072 11.3746 16.31 11.419 16.3214 11.4616C16.3328 11.5041 16.3526 11.5439 16.3797 11.5787C16.4069 11.6134 16.4407 11.6423 16.4792 11.6636C16.5178 11.685 16.5602 11.6984 16.604 11.703C16.6478 11.7076 16.6921 11.7033 16.7343 11.6904C16.8156 11.6655 16.8841 11.6101 16.9253 11.5357C16.9665 11.4613 16.9773 11.3738 16.9553 11.2917C16.9332 11.2096 16.8802 11.1392 16.8073 11.0954C16.7344 11.0516 16.6474 11.0378 16.5645 11.0569ZM14.6448 11.5714C14.6018 11.5813 14.5613 11.5998 14.5257 11.6257C14.4901 11.6516 14.46 11.6844 14.4373 11.7221C14.4146 11.7599 14.3998 11.8018 14.3936 11.8455C14.3875 11.8891 14.3902 11.9335 14.4016 11.9761C14.413 12.0186 14.4329 12.0584 14.46 12.0932C14.4871 12.1279 14.521 12.1568 14.5595 12.1781C14.598 12.1995 14.6405 12.2129 14.6843 12.2175C14.7281 12.2221 14.7724 12.2178 14.8145 12.2049C14.8958 12.18 14.9643 12.1246 15.0055 12.0502C15.0468 11.9758 15.0575 11.8883 15.0355 11.8062C15.0135 11.7241 14.9605 11.6537 14.8876 11.6099C14.8147 11.5661 14.7276 11.5523 14.6448 11.5714ZM12.725 12.0855C12.6821 12.0954 12.6416 12.1138 12.606 12.1397C12.5703 12.1656 12.5402 12.1984 12.5176 12.2362C12.4949 12.274 12.48 12.3159 12.4739 12.3595C12.4677 12.4032 12.4705 12.4476 12.4819 12.4901C12.4933 12.5327 12.5131 12.5725 12.5402 12.6072C12.5674 12.6419 12.6012 12.6708 12.6397 12.6922C12.6783 12.7135 12.7207 12.7269 12.7645 12.7315C12.8083 12.7361 12.8526 12.7319 12.8948 12.719C12.9761 12.6941 13.0446 12.6386 13.0858 12.5643C13.127 12.4899 13.1378 12.4024 13.1158 12.3203C13.0937 12.2381 13.0407 12.1677 12.9678 12.1239C12.8949 12.0801 12.8079 12.0664 12.725 12.0855ZM27.9509 11.9993C27.4675 12.5116 26.708 12.918 25.7538 13.1735L18.9926 14.9848L17.114 18.1199C16.4742 19.1837 15.5025 20.0078 14.3486 20.4654L11.7993 21.4707C11.6848 21.517 11.5587 21.526 11.4388 21.4963C11.319 21.4666 11.2116 21.3997 11.1321 21.3054C11.0509 21.2125 11.001 21.0964 10.9894 20.9737C10.9778 20.8509 11.0051 20.7276 11.0673 20.6211L13.5103 16.39C11.801 16.7545 10.3188 16.9478 9.05877 16.9478C7.80752 16.9478 6.76889 16.7589 5.88996 16.4001L5.27133 17.472C5.14582 17.6908 4.97814 17.8826 4.77801 18.0361C4.57787 18.1897 4.34925 18.3021 4.10539 18.3667L3.35333 18.5679C3.2481 18.597 3.13686 18.596 3.03212 18.5653C2.92739 18.5345 2.83332 18.4751 2.76052 18.3938C2.68708 18.3135 2.63727 18.2144 2.61658 18.1076C2.59589 18.0007 2.60513 17.8902 2.64327 17.7883L3.74008 14.8369C3.72346 14.8168 3.70596 14.798 3.68977 14.7779C2.6585 13.5063 1.63719 12.2267 0.625955 10.9392C0.565465 10.8628 0.524983 10.7726 0.508173 10.6766C0.491364 10.5806 0.498758 10.482 0.529687 10.3896C0.560616 10.2972 0.614102 10.214 0.685303 10.1475C0.756504 10.0809 0.843171 10.0332 0.937455 10.0087L2.83708 9.49941C3.02051 9.44983 3.21355 9.44775 3.39801 9.49336C3.58247 9.53898 3.75228 9.6308 3.89146 9.76016L6.43771 12.117L12.1073 10.5975L7.70033 8.05304C7.47852 7.92529 7.36608 7.68029 7.41377 7.42872C7.46146 7.17716 7.65614 6.98991 7.90902 6.95229L10.6198 6.54804C11.84 6.36516 13.1078 6.59616 14.188 7.19597L15.9385 8.16898C15.9777 8.18898 16.0125 8.21669 16.0408 8.25044C16.0692 8.28419 16.0904 8.3233 16.1033 8.36543C16.1161 8.40756 16.1204 8.45186 16.1158 8.49567C16.1112 8.53948 16.0978 8.58192 16.0764 8.62045C16.055 8.65898 16.0261 8.69281 15.9914 8.71992C15.9567 8.74704 15.9169 8.76689 15.8743 8.77828C15.8318 8.78968 15.7873 8.79238 15.7437 8.78624C15.7001 8.7801 15.6582 8.76524 15.6204 8.74254L13.8695 7.76954C12.9097 7.23854 11.8021 7.03734 10.7169 7.19685L8.18464 7.57441L13.0041 10.3569L21.969 7.9546C23.7207 7.4856 24.9838 8.23941 25.7376 8.69047C25.8723 8.77098 25.9891 8.84185 26.0889 8.89085C27.0733 9.03304 28.22 9.58429 28.4597 10.4798C28.5892 10.965 28.4037 11.5189 27.9509 11.9993ZM13.9518 15.6257L14.5818 14.5346L8.16277 16.2544C9.67827 16.3813 11.5775 16.1717 13.9518 15.6257ZM27.8253 10.6505C27.6683 10.0642 26.7425 9.63854 25.9515 9.53485C25.9194 9.53095 25.8881 9.5221 25.8588 9.5086C25.7477 9.45542 25.6394 9.39672 25.5341 9.33273L23.3913 9.90672C23.3072 9.92895 23.2178 9.91705 23.1425 9.87361C23.0672 9.83018 23.0121 9.75873 22.9892 9.67485C22.9678 9.59083 22.9801 9.50177 23.0234 9.42667C23.0667 9.35156 23.1376 9.29634 23.2211 9.27279L24.7099 8.87379C24.0515 8.55398 23.2027 8.30372 22.1383 8.58897L6.43246 12.7977C6.37888 12.8122 6.32249 12.8129 6.2686 12.7995C6.21471 12.7862 6.1651 12.7594 6.12446 12.7216L3.44608 10.2418C3.38825 10.1879 3.31757 10.1496 3.24077 10.1306C3.16397 10.1116 3.0836 10.1125 3.00727 10.1333L1.20652 10.6159C1.58277 11.0954 2.66033 12.463 4.20033 14.3649C4.25239 14.4292 4.30533 14.4922 4.36002 14.553C4.44314 14.6462 4.45846 14.7726 4.41908 14.882L4.42258 14.8846L3.30127 17.9016L3.93608 17.7318C4.09661 17.6893 4.24709 17.6152 4.37881 17.5141C4.51053 17.4129 4.62088 17.2866 4.70346 17.1425L6.19971 14.5512L5.31683 14.7879C5.23279 14.8098 5.14352 14.7977 5.0683 14.7543C4.99307 14.711 4.93793 14.6397 4.91477 14.556C4.90358 14.5144 4.90071 14.471 4.90631 14.4283C4.91191 14.3855 4.92588 14.3443 4.94741 14.307C4.96894 14.2696 4.99762 14.2369 5.03181 14.2107C5.06599 14.1844 5.10501 14.1651 5.14664 14.154L6.17564 13.8779C6.28901 13.8474 6.40887 13.8513 6.52005 13.889C6.63123 13.9267 6.72873 13.9965 6.80021 14.0896C6.87169 14.1827 6.91394 14.295 6.9216 14.4121C6.92927 14.5292 6.902 14.646 6.84327 14.7477L6.22158 15.8243C6.36158 15.8786 6.49896 15.9355 6.64902 15.9801L15.046 13.7296L15.263 13.3538C15.2838 13.3153 15.3122 13.2813 15.3464 13.2539C15.3806 13.2265 15.42 13.2063 15.4622 13.1943C15.5043 13.1824 15.5485 13.179 15.592 13.1844C15.6354 13.1898 15.6774 13.2039 15.7154 13.2258C15.7533 13.2477 15.7865 13.277 15.813 13.3119C15.8395 13.3468 15.8587 13.3867 15.8695 13.4292C15.8803 13.4717 15.8825 13.5159 15.8759 13.5592C15.8693 13.6025 15.8542 13.6441 15.8313 13.6815L11.7262 20.7939L14.1084 19.8546C15.1279 19.4508 15.9864 18.7229 16.5514 17.783L19.9613 12.0929C19.9834 12.0559 20.0126 12.0237 20.0472 11.998C20.0818 11.9723 20.1212 11.9537 20.163 11.9432C20.2048 11.9327 20.2482 11.9306 20.2909 11.9369C20.3335 11.9432 20.3745 11.9579 20.4115 11.98C20.4581 12.0088 20.4966 12.0489 20.5234 12.0967C20.5502 12.1445 20.5643 12.1983 20.5646 12.253L26.5369 10.6527C26.5785 10.6415 26.6219 10.6387 26.6647 10.6443C26.7074 10.6499 26.7486 10.6639 26.7859 10.6855C26.8232 10.707 26.8559 10.7357 26.8821 10.7699C26.9084 10.8041 26.9276 10.8431 26.9387 10.8848C26.9499 10.9264 26.9527 10.9698 26.9471 11.0125C26.9415 11.0552 26.9275 11.0964 26.9059 11.1337C26.8844 11.1711 26.8557 11.2038 26.8215 11.23C26.7873 11.2562 26.7483 11.2755 26.7066 11.2866L20.1577 13.0414L19.4774 14.1767L25.5836 12.5405C26.6406 12.2574 27.1945 11.8457 27.4731 11.55C27.7623 11.2428 27.894 10.9068 27.8253 10.6505ZM10.8053 12.6C10.7623 12.6099 10.7218 12.6283 10.6862 12.6542C10.6506 12.6801 10.6205 12.7129 10.5978 12.7507C10.5751 12.7885 10.5603 12.8304 10.5541 12.874C10.548 12.9177 10.5507 12.9621 10.5621 13.0046C10.5735 13.0472 10.5934 13.087 10.6205 13.1217C10.6476 13.1564 10.6815 13.1853 10.72 13.2067C10.7585 13.228 10.801 13.2414 10.8448 13.246C10.8886 13.2506 10.9329 13.2464 10.975 13.2335C11.0563 13.2086 11.1248 13.1531 11.166 13.0788C11.2073 13.0044 11.218 12.9169 11.196 12.8348C11.174 12.7526 11.121 12.6822 11.0481 12.6384C10.9752 12.5946 10.8881 12.5809 10.8053 12.6Z" fill="#026ED2"/>
</g>
<defs>
<clipPath id="clip0_131_2174">
<rect width="28" height="28" fill="white" transform="translate(0.5)"/>
</clipPath>
</defs>
</svg>
