<svg width="30" height="31" viewBox="0 0 30 31" fill="none" xmlns="http://www.w3.org/2000/svg">
<path fill-rule="evenodd" clip-rule="evenodd" d="M24.9384 2.65534L24.3977 4.28838C24.3956 4.29486 24.3919 4.30074 24.3871 4.30556C24.3823 4.31038 24.3764 4.314 24.3699 4.31613L22.7369 4.8568C22.6346 4.89055 22.5456 4.95569 22.4825 5.04295C22.4195 5.13021 22.3855 5.23514 22.3855 5.34282C22.3855 5.45049 22.4195 5.55543 22.4825 5.64268C22.5456 5.72994 22.6346 5.79508 22.7369 5.82883L24.3699 6.36939C24.3764 6.37154 24.3823 6.37518 24.3871 6.38002C24.3919 6.38486 24.3956 6.39076 24.3977 6.39725L24.9384 8.03017C24.9722 8.13232 25.0374 8.22119 25.1246 8.28418C25.2119 8.34717 25.3168 8.38108 25.4244 8.38108C25.532 8.38108 25.6368 8.34717 25.7241 8.28418C25.8113 8.22119 25.8765 8.13232 25.9104 8.03017L26.4509 6.39725C26.4531 6.39076 26.4567 6.38487 26.4616 6.38003C26.4664 6.37519 26.4723 6.37155 26.4788 6.36939L28.1117 5.82883C28.2138 5.79491 28.3026 5.72971 28.3656 5.64247C28.4285 5.55523 28.4624 5.45039 28.4624 5.34282C28.4624 5.23524 28.4285 5.1304 28.3656 5.04316C28.3026 4.95593 28.2138 4.89072 28.1117 4.8568L26.4788 4.31613C26.4723 4.314 26.4664 4.31037 26.4616 4.30556C26.4567 4.30074 26.4531 4.29485 26.4509 4.28838L25.9104 2.65534C25.8765 2.5532 25.8113 2.46433 25.7241 2.40134C25.6368 2.33835 25.532 2.30444 25.4244 2.30444C25.3168 2.30444 25.2119 2.33835 25.1246 2.40134C25.0374 2.46433 24.9722 2.5532 24.9384 2.65534ZM25.3827 2.80242C25.3856 2.7937 25.3912 2.78611 25.3987 2.78073C25.4061 2.77535 25.4151 2.77246 25.4243 2.77246C25.4335 2.77246 25.4425 2.77535 25.4499 2.78073C25.4574 2.78611 25.463 2.7937 25.4659 2.80242L26.0066 4.43546C26.0316 4.51125 26.0741 4.58013 26.1305 4.63659C26.187 4.69305 26.2558 4.73553 26.3316 4.76063L27.9646 5.30119C27.9734 5.30409 27.981 5.30967 27.9863 5.31714C27.9917 5.3246 27.9946 5.33356 27.9946 5.34276C27.9946 5.35196 27.9917 5.36092 27.9863 5.36838C27.981 5.37585 27.9734 5.38143 27.9646 5.38433L26.3316 5.92501C26.2558 5.95006 26.1869 5.99251 26.1305 6.04896C26.0741 6.1054 26.0316 6.17427 26.0066 6.25006L25.4659 7.88298C25.463 7.89171 25.4574 7.89931 25.45 7.9047C25.4425 7.91009 25.4335 7.913 25.4243 7.91301C25.4151 7.91302 25.4062 7.91014 25.3987 7.90477C25.3912 7.8994 25.3857 7.89182 25.3827 7.8831L24.8422 6.25006C24.8171 6.17427 24.7746 6.10539 24.7181 6.04893C24.6617 5.99247 24.5928 5.95 24.517 5.9249L22.8841 5.38433C22.8754 5.38143 22.8678 5.37585 22.8624 5.36838C22.857 5.36092 22.8541 5.35196 22.8541 5.34276C22.8541 5.33356 22.857 5.3246 22.8624 5.31714C22.8678 5.30967 22.8754 5.30409 22.8841 5.30119L24.517 4.76063C24.5928 4.73552 24.6617 4.69305 24.7181 4.63659C24.7746 4.58013 24.8171 4.51125 24.8422 4.43546L25.3827 2.80242ZM26.3075 10.8873L25.0454 11.305C24.9556 11.3348 24.8775 11.3922 24.8222 11.4689C24.7668 11.5456 24.737 11.6379 24.737 11.7325C24.737 11.8271 24.7668 11.9193 24.8222 11.996C24.8775 12.0728 24.9556 12.1301 25.0454 12.16L26.3075 12.5778L26.7253 13.8398C26.7551 13.9297 26.8124 14.0079 26.8891 14.0633C26.9658 14.1187 27.0581 14.1486 27.1527 14.1486C27.2474 14.1486 27.3396 14.1187 27.4164 14.0633C27.4931 14.0079 27.5504 13.9297 27.5801 13.8398L27.998 12.5778L29.26 12.16C29.3499 12.1302 29.4282 12.0729 29.4836 11.9962C29.5391 11.9194 29.5689 11.8272 29.5689 11.7325C29.5689 11.6378 29.5391 11.5455 29.4836 11.4688C29.4282 11.392 29.3499 11.3347 29.26 11.305L27.998 10.8873L27.5801 9.62523C27.5505 9.53532 27.4932 9.45706 27.4164 9.40158C27.3397 9.34611 27.2474 9.31625 27.1527 9.31625C27.058 9.31625 26.9658 9.34611 26.889 9.40158C26.8123 9.45706 26.755 9.53532 26.7253 9.62523L26.3075 10.8873ZM27.1527 9.82366L27.5564 11.0429C27.5785 11.1095 27.6158 11.1701 27.6655 11.2198C27.7151 11.2694 27.7757 11.3068 27.8424 11.3288L29.0616 11.7325L27.8424 12.1361C27.7757 12.1582 27.7151 12.1956 27.6655 12.2452C27.6158 12.2949 27.5784 12.3554 27.5563 12.4221L27.1527 13.6414L26.7491 12.4221C26.7271 12.3554 26.6897 12.2948 26.64 12.2452C26.5903 12.1955 26.5297 12.1582 26.4631 12.1361L25.2439 11.7325L26.4632 11.3288C26.5298 11.3067 26.5904 11.2694 26.6401 11.2197C26.6897 11.1701 26.7271 11.1095 26.7491 11.0429L27.1527 9.82366ZM22.3136 6.82849C22.0246 5.60579 20.7972 4.8477 19.5745 5.13669L2.16352 9.25186C0.940825 9.54096 0.182735 10.7683 0.471724 11.9911L0.588016 12.483C0.877005 13.7058 2.10431 14.4639 3.32712 14.1749L20.7381 10.0596C21.9608 9.77062 22.7189 8.54332 22.4299 7.32051L22.3136 6.82849ZM21.858 6.93624L21.9743 7.42815C22.2039 8.3995 21.6017 9.37444 20.6304 9.604L3.21948 13.7193C2.24813 13.9488 1.27318 13.3467 1.04363 12.3753L0.927342 11.8833C0.697679 10.9121 1.29993 9.93714 2.27127 9.70748L19.6822 5.59231C20.6535 5.36276 21.6285 5.96489 21.858 6.93624ZM15.903 13.0306C15.903 12.9999 15.8969 12.9694 15.8852 12.941C15.8734 12.9126 15.8562 12.8868 15.8344 12.8651C15.8127 12.8434 15.7869 12.8261 15.7585 12.8144C15.7301 12.8026 15.6997 12.7966 15.6689 12.7966H11.258C11.2273 12.7966 11.1968 12.8026 11.1684 12.8144C11.14 12.8261 11.1142 12.8434 11.0924 12.8651C11.0707 12.8868 11.0535 12.9126 11.0417 12.941C11.0299 12.9694 11.0239 12.9999 11.0239 13.0306V28.5897C11.0239 28.719 11.1287 28.8238 11.258 28.8238H15.6689C15.6997 28.8238 15.7301 28.8177 15.7585 28.806C15.7869 28.7942 15.8127 28.777 15.8344 28.7553C15.8562 28.7335 15.8734 28.7077 15.8852 28.6793C15.8969 28.6509 15.903 28.6205 15.903 28.5897V13.0306ZM15.4349 13.2647V28.3557H11.4921V13.2647H15.4349Z" fill="#081F2C"/>
<path fill-rule="evenodd" clip-rule="evenodd" d="M14.4473 11.5467C14.4772 11.5397 14.5054 11.5268 14.5304 11.5088C14.5553 11.4908 14.5765 11.4681 14.5926 11.4419C14.6088 11.4158 14.6196 11.3867 14.6245 11.3563C14.6294 11.326 14.6283 11.295 14.6212 11.265L13.5654 6.79774C13.5511 6.73731 13.5134 6.68503 13.4606 6.65239C13.4078 6.61975 13.3441 6.60943 13.2837 6.6237L8.45448 7.76516C8.39405 7.77944 8.34177 7.81714 8.30913 7.86996C8.27649 7.92278 8.26617 7.98641 8.28044 8.04684L9.33639 12.5141C9.34346 12.5441 9.35635 12.5723 9.37434 12.5972C9.39232 12.6222 9.41504 12.6433 9.4412 12.6595C9.46736 12.6756 9.49644 12.6865 9.52679 12.6914C9.55714 12.6963 9.58816 12.6952 9.61808 12.6881L14.4473 11.5467ZM14.1118 11.1449L9.73819 12.1786L8.78999 8.16696L13.1636 7.13314L14.1118 11.1449Z" fill="#081F2C"/>
<path fill-rule="evenodd" clip-rule="evenodd" d="M12.4782 7.28451C12.5009 7.28609 12.5241 7.28429 12.5474 7.27878L17.7466 6.04991C17.7824 6.04137 17.8157 6.02463 17.8439 6.00081C17.9231 5.93407 18 5.86471 18.0746 5.79283C18.7516 5.13755 18.9846 4.42889 18.8351 3.82597C18.7312 3.40676 18.441 2.96361 17.796 2.6035C16.6152 1.9444 15.086 2.0089 13.7431 2.658C12.0155 3.49316 10.633 5.26496 10.7571 7.41957C10.7591 7.45368 10.7686 7.48695 10.7848 7.51704C10.801 7.54712 10.8236 7.57329 10.851 7.59372C10.8784 7.61415 10.9099 7.62833 10.9434 7.63528C10.9768 7.64223 11.0114 7.64178 11.0447 7.63395L12.4137 7.31036C12.4368 7.30485 12.4585 7.29609 12.4782 7.28451ZM11.2177 7.11204C11.2349 5.28485 12.4547 3.80081 13.9469 3.07957C15.1468 2.49946 16.5128 2.42339 17.5679 3.01238C18.0632 3.2889 18.3009 3.61665 18.3806 3.93856C18.4971 4.40867 18.2768 4.94552 17.7489 5.45642C17.6971 5.50654 17.6422 5.55676 17.5843 5.60676C17.5837 5.60732 14.892 6.2435 14.892 6.2435C15.7644 5.8044 16.6049 5.30384 17.1194 4.80597C17.2296 4.69923 17.332 4.60373 17.3986 4.50934C17.4674 4.41204 17.5046 4.31227 17.5074 4.20845C17.51 4.11328 17.3606 3.9635 17.3606 3.9635C17.3606 3.9635 17.3678 3.9689 17.3713 3.97204C17.3064 3.91339 17.2248 3.85755 17.1266 3.80283C16.3147 3.34957 15.2643 3.44822 14.3409 3.89463C13.2051 4.44361 12.2473 5.53642 12.1357 6.89507L11.2177 7.11204ZM16.9929 4.26934C16.9623 4.24867 16.9307 4.2294 16.8984 4.21159C16.212 3.82845 15.3252 3.93878 14.5447 4.31609C13.6031 4.77125 12.79 5.64564 12.6239 6.74698C13.892 6.23743 15.8795 5.35429 16.7938 4.46957C16.8682 4.39755 16.9397 4.33316 16.9929 4.26934Z" fill="#081F2C"/>
<path fill-rule="evenodd" clip-rule="evenodd" d="M9.47065 7.99553C9.49334 7.99699 9.51671 7.99519 9.53975 7.98968L10.9087 7.6662C10.942 7.65836 10.9732 7.64331 11 7.62213C11.0269 7.60095 11.0487 7.57414 11.0641 7.54359C11.0795 7.51305 11.088 7.4795 11.089 7.44532C11.09 7.41114 11.0835 7.37715 11.07 7.34575C10.2164 5.3635 8.18694 4.39822 6.26818 4.42485C4.77671 4.44564 3.38042 5.07261 2.61975 6.1907C2.20424 6.80137 2.14312 7.32766 2.23795 7.7489C2.37424 8.35508 2.89975 8.8844 3.79862 9.16721C3.89368 9.1971 3.99368 9.22463 4.09795 9.24991C4.13379 9.25856 4.1711 9.25867 4.20694 9.25025L9.40615 8.02137C9.42941 8.01586 9.45098 8.00699 9.47065 7.99553ZM4.15413 8.78148C4.0819 8.76319 4.01019 8.74292 3.93907 8.7207C3.2384 8.50013 2.80098 8.11867 2.69469 7.6462C2.62188 7.32261 2.68761 6.92317 3.00671 6.45407C3.68649 5.45508 4.94211 4.91159 6.27469 4.89305C7.93188 4.86991 9.68705 5.65081 10.5204 7.27699L9.60244 7.49384C8.89413 6.3289 7.54851 5.7807 6.28728 5.79822C5.26166 5.81249 4.2784 6.19452 3.75525 6.96339C3.692 7.05631 3.64402 7.14272 3.61222 7.22429C3.61391 7.21991 3.61795 7.21182 3.61795 7.21182C3.61795 7.21182 3.55143 7.41261 3.59638 7.49654C3.64537 7.58811 3.72334 7.6607 3.8284 7.71688C3.9302 7.77148 4.06447 7.81103 4.21087 7.8571C4.89391 8.07204 5.86986 8.14339 6.84525 8.1453C6.84615 8.1453 4.15447 8.78148 4.15447 8.78148H4.15413ZM9.09952 7.58013C8.45784 6.66957 7.3393 6.25182 6.29379 6.26631C5.42683 6.27845 4.58458 6.57676 4.14233 7.22676C4.12009 7.25935 4.10042 7.29047 4.08368 7.32058C4.15986 7.35395 4.25267 7.37946 4.35132 7.41047C5.56503 7.79238 7.73761 7.69216 9.09952 7.58013ZM7.15065 12.7968C7.13256 12.7968 7.11447 12.7988 7.09683 12.8031L3.34076 13.6908C3.30017 13.7004 3.26288 13.7207 3.23275 13.7495C3.20262 13.7783 3.18075 13.8147 3.16941 13.8549C3.1329 13.984 3.11445 14.1175 3.11458 14.2517V26.3313C3.11458 27.707 4.23143 28.824 5.60728 28.824H21.3197C22.6955 28.824 23.8124 27.707 23.8124 26.3313V14.2517C23.8124 13.4481 23.1611 12.7968 22.3575 12.7968H7.15065ZM7.17795 13.2649H22.3575C22.6192 13.2649 22.8702 13.3688 23.0553 13.5539C23.2404 13.739 23.3444 13.99 23.3444 14.2517V26.3313C23.3444 27.4487 22.4372 28.3559 21.3197 28.3559H5.60728C4.48986 28.3559 3.58267 27.4487 3.58267 26.3313V14.2517C3.58267 14.2044 3.58604 14.1579 3.59244 14.1125L7.17795 13.2649Z" fill="#081F2C"/>
</svg>
